<svg xmlns="http://www.w3.org/2000/svg" viewBox="0 0 160 180" fill="none"><circle cx="80" cy="86" r="71" fill="#c5dda9" opacity=".12"/><path d="m62 130 18 43 18-43" fill="#ffbd78"/><path d="m72 130 8 26 8-26" fill="#fff0b9"/><path d="M58 89 35 118v29l29-17M102 89l23 29v29l-29-17" fill="#c5dda9"/><path d="M80 10C45 43 50 100 60 133h40c10-33 15-90-20-123Z" fill="#f7f0df"/><path d="M80 10c-12 11-19 24-24 38h48c-5-14-12-27-24-38Z" fill="#ffc18b"/><circle cx="80" cy="77" r="17" fill="#244952" stroke="#c5dda9" stroke-width="5"/><path d="m71 71 10-5" stroke="#f7f0df" stroke-width="3" stroke-linecap="round"/><path d="M60 126h40" stroke="#e6a575" stroke-width="5"/><path d="m25 34 3-7 3 7 7 3-7 3-3 7-3-7-7-3ZM125 57l2-5 2 5 5 2-5 2-2 5-2-5-5-2Z" fill="#ffc18b"/></svg>
